# xmcd
#
# Track frame offsets: 
#        150
#        24185
#        51337
#        71742
#        84002
#        112622
#        137510
#        165887
#        191512
#        213287
#        241502
#        268670
#        290012
#        317912
#
# Disc length: 4476 seconds
#
# Revision: 2
# Processed by: cddbd v1.5.2PL0 Copyright (c) Steve Scherf et al.
# Submitted via: ExactAudioCopy v0.99pb3
#
DISCID=b0117a0e
DTITLE=vienna scientists - a selection into dub, funk, trip hop, drum`
DTITLE=n`bass 
DYEAR=1900
DGENRE=downtempo 
TTITLE0=Freedom Satellite -- Trash 
TTITLE1=UKO -- Do yourself some good 
TTITLE2=Sub System Crew -- Conscious 
TTITLE3=The Uptight People -- The Maybe Tomorrow Dub 
TTITLE4=Kruder&Dorfmeister -- Eastwest (Stoned Together) 
TTITLE5=The Menheads -- Get This Text On Television 
TTITLE6=Sin -- On Boulevards (Kirlian Remix) 
TTITLE7=Darcosan -- Babe Factor 
TTITLE8=Club Med -- Safari 
TTITLE9=Jürgen Drimal -- Five Nights (Bajoon Holiday Dub) 
TTITLE10=Gü-Mix -- Get Up Man 
TTITLE11=The Waz. experience -- Bang Lessi 
TTITLE12=Sprite and Salieri -- Predictive Representation In Time Domain 
TTITLE13=Aromabar -- Winter Pagent 
EXTD=
EXTT0=
EXTT1=
EXTT2=
EXTT3=
EXTT4=
EXTT5=
EXTT6=
EXTT7=
EXTT8=
EXTT9=
EXTT10=
EXTT11=
EXTT12=
EXTT13=
PLAYORDER=
